<svg width="201" height="64" viewBox="0 0 201 64" fill="none" xmlns="http://www.w3.org/2000/svg">
<path d="M83.0074 41C81.7004 41 80.5433 40.9032 79.5361 40.7097C78.5288 40.5161 77.8034 40.3226 77.3597 40.129V39.2581L77 35.571C77.2278 35.8806 77.6055 36.2097 78.1331 36.5581C78.6607 36.9065 79.3382 37.2065 80.1656 37.4581C80.993 37.6903 81.9522 37.8065 83.0434 37.8065C83.7149 37.8065 84.2305 37.7387 84.5902 37.6032C84.95 37.4484 85.1958 37.2355 85.3277 36.9645C85.4596 36.6935 85.5255 36.3742 85.5255 36.0065C85.5255 35.5419 85.4296 35.1839 85.2377 34.9323C85.0459 34.6613 84.6982 34.4387 84.1945 34.2645C83.7029 34.0903 83.0014 33.9065 82.0901 33.7129C80.999 33.4806 80.0877 33.1613 79.3562 32.7548C78.6248 32.3484 78.0792 31.7774 77.7195 31.0419C77.3597 30.2871 77.1799 29.2903 77.1799 28.0516C77.1799 27.0452 77.3417 26.1645 77.6655 25.4097C77.9892 24.6548 78.5109 24.0645 79.2303 23.6387C79.9498 23.2129 80.903 23 82.0901 23C83.3372 23 84.4044 23.0968 85.2917 23.2903C86.179 23.4839 86.7906 23.6774 87.1263 23.871V24.7419L87.6659 27.9355C87.3661 27.6839 86.9345 27.4226 86.3709 27.1516C85.8073 26.8806 85.1538 26.6581 84.4104 26.4839C83.6669 26.2903 82.8635 26.1935 82.0002 26.1935C81.4606 26.1935 81.0409 26.271 80.7412 26.4258C80.4414 26.5613 80.2255 26.7645 80.0937 27.0355C79.9737 27.2871 79.9138 27.6065 79.9138 27.9935C79.9138 28.4581 80.0217 28.8355 80.2375 29.1258C80.4654 29.3968 80.8311 29.6194 81.3347 29.7935C81.8383 29.9677 82.5158 30.1323 83.3672 30.2871C84.6742 30.5194 85.6814 30.8677 86.3889 31.3323C87.0963 31.7968 87.582 32.3968 87.8458 33.1323C88.1216 33.8484 88.2594 34.7194 88.2594 35.7452C88.2594 36.6355 88.1575 37.4194 87.9537 38.0968C87.7498 38.7548 87.4321 39.2968 87.0004 39.7226C86.5807 40.1484 86.0351 40.4677 85.3636 40.6806C84.7041 40.8935 83.9187 41 83.0074 41Z" fill="#21337D"/>
<path d="M88.764 40.7097C88.824 40.7097 88.9139 40.5742 89.0338 40.3032C89.1657 40.0323 89.3156 39.5774 89.4835 38.9387C89.5674 38.6484 89.6993 38.1548 89.8792 37.4581C90.0711 36.7419 90.2869 35.9194 90.5267 34.9903C90.7785 34.0419 91.0363 33.0548 91.3001 32.029C91.5759 31.0032 91.8337 30.0161 92.0735 29.0677C92.3253 28.1194 92.5412 27.2871 92.721 26.571C92.9129 25.8548 93.0448 25.3419 93.1167 25.0323C93.2726 24.4129 93.3566 23.9677 93.3685 23.6968C93.3805 23.4258 93.3566 23.2903 93.2966 23.2903H97.2176C97.1697 23.2903 97.1517 23.4258 97.1637 23.6968C97.1757 23.9484 97.2596 24.3935 97.4155 25.0323C97.4874 25.3419 97.6133 25.8548 97.7932 26.571C97.9731 27.2677 98.1829 28.0903 98.4227 29.0387C98.6625 29.9677 98.9143 30.9452 99.1781 31.971C99.4419 32.9968 99.6937 33.9839 99.9336 34.9323C100.173 35.8613 100.389 36.6839 100.581 37.4C100.773 38.1161 100.911 38.629 100.995 38.9387C101.175 39.5774 101.348 40.0323 101.516 40.3032C101.684 40.5742 101.81 40.7097 101.894 40.7097H97.8112C97.9071 40.6903 97.985 40.5452 98.045 40.2742C98.1169 39.9839 98.1169 39.5387 98.045 38.9387C98.033 38.8032 98.021 38.6968 98.009 38.6194C97.997 38.5226 97.9731 38.3871 97.9371 38.2129C97.8891 37.9226 97.8352 37.7194 97.7752 37.6032C97.7153 37.4677 97.6133 37.3903 97.4694 37.371C97.3375 37.3516 97.1157 37.3419 96.8039 37.3419H93.7103C93.3865 37.3419 93.1467 37.3613 92.9908 37.4C92.835 37.4194 92.727 37.4871 92.6671 37.6032C92.6071 37.7194 92.5592 37.9129 92.5232 38.1839C92.5112 38.2806 92.4932 38.4065 92.4692 38.5613C92.4572 38.7161 92.4453 38.8419 92.4333 38.9387C92.3493 39.5581 92.3253 40.0032 92.3613 40.2742C92.4093 40.5452 92.4692 40.6903 92.5412 40.7097H88.764ZM94.1779 34.1484H96.2823C96.6301 34.1484 96.8219 34.1 96.8579 34.0032C96.8939 33.9065 96.8759 33.6935 96.8039 33.3645C96.6481 32.7452 96.4922 32.1161 96.3363 31.4774C96.1804 30.8194 96.0305 30.1806 95.8866 29.5613C95.7547 28.9419 95.6348 28.371 95.5269 27.8484C95.431 27.3065 95.347 26.8516 95.2751 26.4839H95.2391C95.0713 27.2 94.8974 27.9548 94.7175 28.7484C94.5377 29.5419 94.3698 30.2774 94.2139 30.9548C94.058 31.6323 93.9321 32.1935 93.8362 32.6387C93.7403 33.0645 93.6923 33.2774 93.6923 33.2774C93.6084 33.5871 93.5784 33.8097 93.6024 33.9452C93.6264 34.0806 93.8182 34.1484 94.1779 34.1484Z" fill="#21337D"/>
<path d="M102.676 40.7097C102.76 40.7097 102.838 40.5742 102.91 40.3032C102.994 40.0323 103.036 39.5871 103.036 38.9677V25.0323C103.036 24.4129 102.994 23.9774 102.91 23.7258C102.826 23.4548 102.742 23.3097 102.658 23.2903H108.557C109.613 23.2903 110.452 23.5032 111.076 23.929C111.711 24.3548 112.167 24.9839 112.443 25.8161C112.73 26.629 112.874 27.6452 112.874 28.8645C112.874 29.7355 112.772 30.5097 112.568 31.1871C112.377 31.8645 112.107 32.4161 111.759 32.8419C111.411 33.2677 111.022 33.5774 110.59 33.771V33.8581C111.07 34.1677 111.573 34.7774 112.101 35.6871C112.628 36.5774 113.102 37.5742 113.522 38.6774C113.797 39.3935 114.049 39.9065 114.277 40.2161C114.505 40.5258 114.679 40.6903 114.799 40.7097H110.266C110.41 40.6903 110.524 40.5645 110.608 40.3323C110.704 40.0806 110.674 39.6742 110.518 39.1129C110.266 38.1839 109.96 37.3806 109.601 36.7032C109.241 36.0258 108.821 35.5129 108.342 35.1645C107.874 34.7968 107.334 34.6129 106.723 34.6129H106.525C106.153 34.6129 105.937 34.6613 105.877 34.7581C105.818 34.8548 105.788 35.0968 105.788 35.4839V38.9677C105.788 39.5871 105.83 40.0323 105.913 40.3032C105.997 40.5742 106.081 40.7097 106.165 40.7097H102.676ZM106.525 31.6806H108C108.755 31.6806 109.301 31.4677 109.637 31.0419C109.972 30.5968 110.14 29.871 110.14 28.8645C110.14 28.4194 110.08 28.0226 109.96 27.6742C109.84 27.3258 109.637 27.0548 109.349 26.8613C109.073 26.6677 108.683 26.571 108.18 26.571H106.525C106.153 26.571 105.937 26.6 105.877 26.6581C105.818 26.7161 105.788 26.9387 105.788 27.3258V30.8968C105.788 31.2839 105.818 31.5161 105.877 31.5935C105.937 31.6516 106.153 31.6806 106.525 31.6806Z" fill="#21337D"/>
<path d="M114.576 40.7097C114.636 40.7097 114.726 40.5742 114.846 40.3032C114.978 40.0323 115.127 39.5774 115.295 38.9387C115.379 38.6484 115.511 38.1548 115.691 37.4581C115.883 36.7419 116.099 35.9194 116.339 34.9903C116.59 34.0419 116.848 33.0548 117.112 32.029C117.388 31.0032 117.646 30.0161 117.885 29.0677C118.137 28.1194 118.353 27.2871 118.533 26.571C118.725 25.8548 118.857 25.3419 118.929 25.0323C119.084 24.4129 119.168 23.9677 119.18 23.6968C119.192 23.4258 119.168 23.2903 119.108 23.2903H123.029C122.981 23.2903 122.963 23.4258 122.975 23.6968C122.987 23.9484 123.071 24.3935 123.227 25.0323C123.299 25.3419 123.425 25.8548 123.605 26.571C123.785 27.2677 123.995 28.0903 124.235 29.0387C124.474 29.9677 124.726 30.9452 124.99 31.971C125.254 32.9968 125.506 33.9839 125.745 34.9323C125.985 35.8613 126.201 36.6839 126.393 37.4C126.585 38.1161 126.723 38.629 126.807 38.9387C126.986 39.5774 127.16 40.0323 127.328 40.3032C127.496 40.5742 127.622 40.7097 127.706 40.7097H123.623C123.719 40.6903 123.797 40.5452 123.857 40.2742C123.929 39.9839 123.929 39.5387 123.857 38.9387C123.845 38.8032 123.833 38.6968 123.821 38.6194C123.809 38.5226 123.785 38.3871 123.749 38.2129C123.701 37.9226 123.647 37.7194 123.587 37.6032C123.527 37.4677 123.425 37.3903 123.281 37.371C123.149 37.3516 122.928 37.3419 122.616 37.3419H119.522C119.198 37.3419 118.959 37.3613 118.803 37.4C118.647 37.4194 118.539 37.4871 118.479 37.6032C118.419 37.7194 118.371 37.9129 118.335 38.1839C118.323 38.2806 118.305 38.4065 118.281 38.5613C118.269 38.7161 118.257 38.8419 118.245 38.9387C118.161 39.5581 118.137 40.0032 118.173 40.2742C118.221 40.5452 118.281 40.6903 118.353 40.7097H114.576ZM119.99 34.1484H122.094C122.442 34.1484 122.634 34.1 122.67 34.0032C122.706 33.9065 122.688 33.6935 122.616 33.3645C122.46 32.7452 122.304 32.1161 122.148 31.4774C121.992 30.8194 121.842 30.1806 121.698 29.5613C121.567 28.9419 121.447 28.371 121.339 27.8484C121.243 27.3065 121.159 26.8516 121.087 26.4839H121.051C120.883 27.2 120.709 27.9548 120.529 28.7484C120.349 29.5419 120.182 30.2774 120.026 30.9548C119.87 31.6323 119.744 32.1935 119.648 32.6387C119.552 33.0645 119.504 33.2774 119.504 33.2774C119.42 33.5871 119.39 33.8097 119.414 33.9452C119.438 34.0806 119.63 34.1484 119.99 34.1484Z" fill="#21337D"/>
<path d="M128.47 40.7097C128.554 40.7097 128.638 40.5742 128.722 40.3032C128.805 40.0323 128.847 39.5871 128.847 38.9677V25.0323C128.847 24.4129 128.805 23.9774 128.722 23.7258C128.638 23.4548 128.554 23.3097 128.47 23.2903H134.117C135.173 23.2903 136.06 23.4548 136.779 23.7839C137.499 24.1129 138.074 24.5677 138.506 25.1484C138.95 25.729 139.286 26.3968 139.513 27.1516C139.741 27.8871 139.891 28.671 139.963 29.5032C140.047 30.3355 140.089 31.1774 140.089 32.029C140.089 32.8032 140.047 33.6065 139.963 34.4387C139.891 35.2516 139.735 36.0355 139.495 36.7903C139.268 37.5258 138.932 38.1935 138.488 38.7935C138.056 39.3742 137.481 39.8387 136.761 40.1871C136.054 40.5355 135.173 40.7097 134.117 40.7097H128.47ZM132.337 37.4871H133.074C134.105 37.4871 134.933 37.3516 135.556 37.0806C136.18 36.7903 136.636 36.2677 136.923 35.5129C137.211 34.7581 137.355 33.6645 137.355 32.2323V31.7097C137.355 30.2 137.223 29.0871 136.959 28.371C136.695 27.6355 136.252 27.1516 135.628 26.9194C135.005 26.6871 134.153 26.571 133.074 26.571H132.337C131.989 26.571 131.779 26.6097 131.707 26.6871C131.647 26.7452 131.617 26.9774 131.617 27.3839V36.6161C131.617 37.0419 131.647 37.2935 131.707 37.371C131.779 37.4484 131.989 37.4871 132.337 37.4871Z" fill="#21337D"/>
<path d="M141.534 40.7097C141.618 40.7097 141.702 40.5742 141.786 40.3032C141.869 40.0323 141.911 39.5871 141.911 38.9677V25.0323C141.911 24.4129 141.869 23.9774 141.786 23.7258C141.702 23.4548 141.618 23.3097 141.534 23.2903H145.059C144.975 23.2903 144.891 23.4258 144.807 23.6968C144.723 23.9677 144.681 24.4226 144.681 25.0613V29.5032C144.681 29.929 144.711 30.1806 144.771 30.2581C144.843 30.3355 145.059 30.3742 145.419 30.3742H150.041C150.401 30.3742 150.611 30.3452 150.671 30.2871C150.731 30.2097 150.761 29.9484 150.761 29.5032V25.0323C150.761 24.4129 150.719 23.9774 150.635 23.7258C150.551 23.4548 150.467 23.3097 150.383 23.2903H153.908C153.824 23.2903 153.74 23.4258 153.657 23.6968C153.573 23.9677 153.531 24.4226 153.531 25.0613V38.9677C153.531 39.5871 153.573 40.0323 153.657 40.3032C153.74 40.5742 153.824 40.7097 153.908 40.7097H150.383C150.467 40.7097 150.551 40.5742 150.635 40.3032C150.719 40.0323 150.761 39.5871 150.761 38.9677V34.4387C150.761 33.9935 150.725 33.7419 150.653 33.6839C150.593 33.6065 150.389 33.5677 150.041 33.5677H145.419C145.059 33.5677 144.843 33.6065 144.771 33.6839C144.711 33.7613 144.681 34.0129 144.681 34.4387V38.9677C144.681 39.5871 144.723 40.0323 144.807 40.3032C144.891 40.5742 144.975 40.7097 145.059 40.7097H141.534Z" fill="#21337D"/>
<path d="M155.529 40.7097C155.613 40.7097 155.691 40.5839 155.762 40.3323C155.846 40.0613 155.888 39.6065 155.888 38.9677V25.0323C155.888 24.4129 155.846 23.9677 155.762 23.6968C155.691 23.4258 155.613 23.2903 155.529 23.2903H159C158.916 23.2903 158.832 23.4258 158.748 23.6968C158.664 23.9484 158.622 24.4032 158.622 25.0613V38.9677C158.622 39.5871 158.664 40.0323 158.748 40.3032C158.832 40.5742 158.916 40.7097 159 40.7097H155.529Z" fill="#21337D"/>
<path d="M166 41C166.083 41 166.166 40.86 166.249 40.58C166.332 40.3 166.373 39.84 166.373 39.2V24.8C166.373 24.16 166.332 23.71 166.249 23.45C166.166 23.17 166.083 23.02 166 23H176.387V23.9L176.742 27.38C176.446 27.16 175.924 26.93 175.177 26.69C174.43 26.43 173.529 26.3 172.474 26.3H169.842C169.486 26.3 169.272 26.35 169.201 26.45C169.142 26.53 169.112 26.78 169.112 27.2V29.42C169.112 29.86 169.142 30.12 169.201 30.2C169.272 30.28 169.48 30.32 169.824 30.32H172.385C173.073 30.32 173.624 30.26 174.039 30.14C174.466 30 174.744 29.86 174.875 29.72C174.827 30.1 174.774 30.54 174.715 31.04C174.655 31.54 174.608 32.02 174.572 32.48C174.537 32.94 174.519 33.32 174.519 33.62H169.824C169.48 33.62 169.272 33.66 169.201 33.74C169.142 33.8 169.112 34.06 169.112 34.52V36.74C169.112 37.2 169.142 37.47 169.201 37.55C169.261 37.63 169.468 37.67 169.824 37.67H174.626C175.314 37.67 175.865 37.54 176.28 37.28C176.707 37 176.985 36.73 177.116 36.47L176.76 40.07V41H166Z" fill="#F67900"/>
<path d="M178.206 41C178.289 41 178.366 40.86 178.437 40.58C178.52 40.3 178.562 39.84 178.562 39.2V24.8C178.562 24.16 178.52 23.71 178.437 23.45C178.354 23.17 178.271 23.02 178.188 23H184.022C185.065 23 185.895 23.22 186.512 23.66C187.14 24.1 187.591 24.75 187.864 25.61C188.148 26.45 188.29 27.5 188.29 28.76C188.29 29.66 188.19 30.46 187.988 31.16C187.798 31.86 187.532 32.43 187.188 32.87C186.844 33.31 186.459 33.63 186.032 33.83V33.92C186.506 34.24 187.004 34.87 187.526 35.81C188.047 36.73 188.516 37.76 188.931 38.9C189.203 39.64 189.452 40.17 189.678 40.49C189.903 40.81 190.075 40.98 190.194 41H185.712C185.854 40.98 185.967 40.85 186.05 40.61C186.144 40.35 186.115 39.93 185.961 39.35C185.712 38.39 185.409 37.56 185.054 36.86C184.698 36.16 184.283 35.63 183.809 35.27C183.346 34.89 182.813 34.7 182.208 34.7H182.012C181.645 34.7 181.431 34.75 181.372 34.85C181.313 34.95 181.283 35.2 181.283 35.6V39.2C181.283 39.84 181.325 40.3 181.408 40.58C181.491 40.86 181.574 41 181.657 41H178.206ZM182.012 31.67H183.471C184.218 31.67 184.757 31.45 185.089 31.01C185.421 30.55 185.587 29.8 185.587 28.76C185.587 28.3 185.528 27.89 185.409 27.53C185.291 27.17 185.089 26.89 184.805 26.69C184.532 26.49 184.147 26.39 183.649 26.39H182.012C181.645 26.39 181.431 26.42 181.372 26.48C181.313 26.54 181.283 26.77 181.283 27.17V30.86C181.283 31.26 181.313 31.5 181.372 31.58C181.431 31.64 181.645 31.67 182.012 31.67Z" fill="#F67900"/>
<path d="M190.916 41C190.999 41 191.076 40.86 191.147 40.58C191.23 40.3 191.271 39.84 191.271 39.2V24.8C191.271 24.16 191.23 23.71 191.147 23.45C191.064 23.17 190.981 23.02 190.898 23H196.732C197.739 23 198.552 23.25 199.168 23.75C199.797 24.23 200.259 24.93 200.555 25.85C200.852 26.75 201 27.83 201 29.09C201 30.37 200.852 31.48 200.555 32.42C200.259 33.34 199.797 34.05 199.168 34.55C198.552 35.03 197.739 35.27 196.732 35.27H194.01V39.2C194.01 39.84 194.052 40.3 194.135 40.58C194.218 40.86 194.301 41 194.384 41H190.916ZM194.74 31.97H195.629C196.328 31.97 196.868 31.87 197.247 31.67C197.639 31.47 197.911 31.16 198.065 30.74C198.22 30.32 198.297 29.77 198.297 29.09C198.297 28.43 198.214 27.9 198.048 27.5C197.894 27.1 197.633 26.82 197.265 26.66C196.909 26.48 196.423 26.39 195.807 26.39H194.74C194.372 26.39 194.159 26.43 194.099 26.51C194.04 26.57 194.01 26.8 194.01 27.2V31.13C194.01 31.53 194.04 31.77 194.099 31.85C194.159 31.93 194.372 31.97 194.74 31.97Z" fill="#F67900"/>
<ellipse cx="33" cy="32" rx="33" ry="32" fill="#F67900"/>
<path d="M23.8738 41.2864C21.7929 41.2864 19.9506 41.1909 18.347 41C16.7433 40.8091 15.5883 40.6182 14.882 40.4273V39.5682L14.3092 35.9314C14.672 36.2368 15.2733 36.5614 16.1133 36.905C16.9533 37.2486 18.032 37.5445 19.3492 37.7927C20.6665 38.0218 22.1938 38.1364 23.9311 38.1364C25.0001 38.1364 25.8211 38.0695 26.3938 37.9359C26.9665 37.7832 27.3579 37.5732 27.5679 37.3059C27.7779 37.0386 27.8829 36.7236 27.8829 36.3609C27.8829 35.9027 27.7301 35.5495 27.4247 35.3014C27.1192 35.0341 26.5656 34.8145 25.7638 34.6427C24.9811 34.4709 23.8642 34.2895 22.4133 34.0986C20.6761 33.8695 19.2251 33.5545 18.0606 33.1536C16.8961 32.7527 16.0274 32.1895 15.4547 31.4641C14.882 30.7195 14.5956 29.7364 14.5956 28.5145C14.5956 27.5218 14.8533 26.6532 15.3688 25.9086C15.8842 25.1641 16.7147 24.5818 17.8601 24.1618C19.0056 23.7418 20.5233 23.5318 22.4133 23.5318C24.3988 23.5318 26.0979 23.6273 27.5106 23.8182C28.9233 24.0091 29.897 24.2 30.4315 24.3909V25.25L31.2906 28.4C30.8133 28.1518 30.1261 27.8941 29.2288 27.6268C28.3315 27.3595 27.2911 27.14 26.1074 26.9682C24.9238 26.7773 23.6447 26.6818 22.2701 26.6818C21.4111 26.6818 20.7429 26.7582 20.2656 26.9109C19.7883 27.0445 19.4447 27.245 19.2347 27.5123C19.0438 27.7605 18.9483 28.0755 18.9483 28.4573C18.9483 28.9155 19.1201 29.2877 19.4638 29.5741C19.8265 29.8414 20.4088 30.0609 21.2106 30.2327C22.0124 30.4045 23.0911 30.5668 24.4465 30.7195C26.5274 30.9486 28.1311 31.2923 29.2574 31.7505C30.3838 32.2086 31.157 32.8005 31.577 33.5259C32.0161 34.2323 32.2356 35.0914 32.2356 36.1032C32.2356 36.9814 32.0733 37.7545 31.7488 38.4227C31.4242 39.0718 30.9183 39.6064 30.2311 40.0264C29.5629 40.4464 28.6942 40.7614 27.6251 40.9714C26.5751 41.1814 25.3247 41.2864 23.8738 41.2864ZM34.5567 41C34.6903 41 34.8144 40.8664 34.929 40.5991C35.0626 40.3318 35.1294 39.8927 35.1294 39.2818V25.5364C35.1294 24.9255 35.0626 24.4959 34.929 24.2477C34.7953 23.9805 34.6617 23.8373 34.5281 23.8182H43.9208C45.5435 23.8182 46.8513 24.0568 47.844 24.5341C48.8558 24.9923 49.6003 25.6605 50.0776 26.5386C50.5549 27.3977 50.7935 28.4286 50.7935 29.6314C50.7935 30.8532 50.5549 31.9127 50.0776 32.81C49.6003 33.6882 48.8558 34.3659 47.844 34.8432C46.8513 35.3014 45.5435 35.5305 43.9208 35.5305H39.5394V39.2818C39.5394 39.8927 39.6063 40.3318 39.7399 40.5991C39.8735 40.8664 40.0072 41 40.1408 41H34.5567ZM40.7135 32.3805H42.1453C43.2717 32.3805 44.1403 32.285 44.7513 32.0941C45.3813 31.9032 45.8203 31.6073 46.0685 31.2064C46.3167 30.8055 46.4408 30.2805 46.4408 29.6314C46.4408 29.0014 46.3072 28.4955 46.0399 28.1136C45.7917 27.7318 45.3717 27.4645 44.7799 27.3118C44.2072 27.14 43.4244 27.0541 42.4317 27.0541H40.7135C40.1217 27.0541 39.7781 27.0923 39.6826 27.1686C39.5872 27.2259 39.5394 27.4455 39.5394 27.8273V31.5786C39.5394 31.9605 39.5872 32.1895 39.6826 32.2659C39.7781 32.3423 40.1217 32.3805 40.7135 32.3805Z" fill="#21337D"/>
</svg>
